<svg xmlns="http://www.w3.org/2000/svg" version="1.1" xmlns:xlink="http://www.w3.org/1999/xlink" xmlns:svgjs="http://svgjs.dev/svgjs" width="1440" height="560" preserveAspectRatio="none" viewBox="0 0 1440 560"><g mask="url(&quot;#SvgjsMask1006&quot;)" fill="none"><rect width="1440" height="560" x="0" y="0" fill="#0e2a47"></rect><path d="M1014.25 274.99a16.11 16.11 0 1 0-6.36-31.59z" fill="#037b0b"></path><path d="M292.37 175.11L332.08 175.11L332.08 214.82L292.37 214.82z" stroke="#d3b714"></path><path d="M196.24 478.36 a13.87 13.87 0 1 0 27.74 0 a13.87 13.87 0 1 0 -27.74 0z" fill="#037b0b"></path><path d="M337.44 508.06L361.8 508.06L361.8 537.01L337.44 537.01z" stroke="#037b0b"></path><path d="M590.07 512.73a50.75 50.75 0 1 0-88.35-49.96z" fill="#e73635"></path><path d="M659.47 400.06a3.29 3.29 0 1 0 5.36-3.82z" stroke="#e73635"></path><path d="M256.97 177.18L276.04 177.18L276.04 226.81L256.97 226.81z" stroke="#e73635"></path><path d="M1317.25 443.7a45.08 45.08 0 1 0 40.47 80.57z" fill="#d3b714"></path><path d="M20.94 328.32 a48.09 48.09 0 1 0 96.18 0 a48.09 48.09 0 1 0 -96.18 0z" stroke="#037b0b"></path><path d="M1153.76 228.82a49.02 49.02 0 1 0 83.02 52.14z" fill="#e73635"></path><path d="M672.66 130.07L686.71 130.07L686.71 144.12L672.66 144.12z" fill="#d3b714"></path><path d="M540.27 271.98L568.07 271.98L568.07 299.78L540.27 299.78z" stroke="#037b0b"></path><path d="M56.65 290.91 a12.45 12.45 0 1 0 24.9 0 a12.45 12.45 0 1 0 -24.9 0z" stroke="#037b0b"></path><path d="M876.39 127.19 a27.47 27.47 0 1 0 54.94 0 a27.47 27.47 0 1 0 -54.94 0z" fill="#037b0b"></path><path d="M782.74 205.88a38.22 38.22 0 1 0 33.04-68.93z" fill="#037b0b"></path><path d="M1076.79 185.61L1099.04 185.61L1099.04 207.86L1076.79 207.86z" stroke="#e73635"></path><path d="M431.91 222.54 a15.13 15.13 0 1 0 30.26 0 a15.13 15.13 0 1 0 -30.26 0z" fill="#037b0b"></path><path d="M696.06 446.12 a31.57 31.57 0 1 0 63.14 0 a31.57 31.57 0 1 0 -63.14 0z" stroke="#e73635"></path><path d="M1024.81 95.73L1035.15 95.73L1035.15 138.97L1024.81 138.97z" stroke="#d3b714"></path><path d="M918.28 223.86 a39.02 39.02 0 1 0 78.04 0 a39.02 39.02 0 1 0 -78.04 0z" stroke="#e73635"></path><path d="M1197.65 376.35L1238.14 376.35L1238.14 424.69L1197.65 424.69z" stroke="#d3b714"></path><path d="M1393.8 492.25a25.56 25.56 0 1 0 35.41 36.86z" fill="#d3b714"></path><path d="M590.49 475.78L591.23 475.78L591.23 493.67L590.49 493.67z" fill="#e73635"></path><path d="M946 251.61L952.27 251.61L952.27 257.88L946 257.88z" fill="#d3b714"></path><path d="M19.29 468.86L74.27 468.86L74.27 523.84L19.29 523.84z" fill="#037b0b"></path><path d="M1182.24 467.97L1235.57 467.97L1235.57 487.43L1182.24 487.43z" stroke="#e73635"></path><path d="M101.53 203.74a21.5 21.5 0 1 0 42.7 5.1z" stroke="#e73635"></path><path d="M1200.89 97.45L1254.53 97.45L1254.53 118.41L1200.89 118.41z" stroke="#d3b714"></path><path d="M1003.19 521.98L1041.43 521.98L1041.43 574.42L1003.19 574.42z" stroke="#e73635"></path><path d="M884.77 452.33 a0.68 0.68 0 1 0 1.36 0 a0.68 0.68 0 1 0 -1.36 0z" stroke="#d3b714"></path><path d="M344.7 258.05 a28.32 28.32 0 1 0 56.64 0 a28.32 28.32 0 1 0 -56.64 0z" stroke="#e73635"></path><path d="M989.17 282.96L991.3 282.96L991.3 285.09L989.17 285.09z" fill="#d3b714"></path><path d="M33.03 25.96 a28.03 28.03 0 1 0 56.06 0 a28.03 28.03 0 1 0 -56.06 0z" stroke="#037b0b"></path></g><defs><mask id="SvgjsMask1006"><rect width="1440" height="560" fill="#ffffff"></rect></mask></defs></svg>